<?xml version="1.0" encoding="UTF-8"?><svg id="Layer_2" xmlns="http://www.w3.org/2000/svg" viewBox="0 0 412.03 120.98"><defs><style>.cls-1{fill:#ffc600;}.cls-1,.cls-2{stroke-width:0px;}.cls-2{fill:#020a0a;}</style></defs><g id="_481751_LG001"><g id="_481751_LG001-2"><path class="cls-1" d="M0,0v120.98h84.68V0H0ZM72.59,108.88H12.1V12.1h60.49v96.78Z"/><path class="cls-2" d="M140.77,54.27h-5.23c-6.86-9.68-13.66-19.31-20.45-30.2h-.06v30.2h-5.78V12.16h5.23c6.86,9.62,13.66,19.19,20.39,30.01h.12V12.16h5.78v42.11Z"/><path class="cls-2" d="M154.49,37.61c1.68-5.53,3.37-10.65,4.87-17.15h.12c1.68,6.5,3.19,11.62,4.75,17.15h-9.74ZM157.26,12.16l-14.56,42.11h6.26l3.67-11.49h12.69l3.31,11.49h8.06l-13.42-42.11h-6.02Z"/><path class="cls-2" d="M183.48,54.27V17.81h-11.07v-5.65h29.36v5.65h-11.07v36.46h-7.22Z"/><path class="cls-2" d="M204.12,54.27V12.16h7.16v42.11h-7.16Z"/><path class="cls-2" d="M233.53,48.98c-7.52,0-10.17-8.31-10.17-16.36s3.01-15.16,10.17-15.16,10.16,7.4,10.16,15.16-2.65,16.36-10.16,16.36ZM233.53,54.99c11.01,0,17.87-9.8,17.87-22.37,0-11.8-7.58-21.18-17.87-21.18s-17.87,9.38-17.87,21.18c0,12.57,6.86,22.37,17.87,22.37Z"/><path class="cls-2" d="M287.31,54.27h-5.23c-6.86-9.68-13.66-19.31-20.45-30.2h-.06v30.2h-5.77V12.16h5.24c6.86,9.62,13.65,19.19,20.39,30.01h.12V12.16h5.77v42.11Z"/><path class="cls-2" d="M301.03,37.61c1.69-5.53,3.37-10.65,4.88-17.15h.12c1.69,6.5,3.19,11.62,4.75,17.15h-9.75ZM303.79,12.16l-14.56,42.11h6.26l3.67-11.49h12.69l3.31,11.49h8.06l-13.41-42.11h-6.02Z"/><path class="cls-2" d="M325.33,12.16h7.16v36.45h14.26v5.65h-21.41V12.16Z"/><path class="cls-2" d="M136.33,89.5v17.38c-3.85,1.51-7.88,2.59-11.97,2.59-12.39,0-20.21-9.62-20.21-22.02,0-11.49,7.82-21.53,20.45-21.53,3.91,0,7.82,1.45,10.23,3.25l-2.35,4.99c-1.93-1.2-4.93-2.22-7.7-2.22-7.7,0-12.94,6.08-12.94,15.64s6.02,15.88,12.21,15.88c1.93,0,3.55-.24,5.05-1.02v-12.94h7.22Z"/><path class="cls-2" d="M162.14,72.3h-12.03v11.55h11.79v5.65h-11.79v13.6h14.2v5.66h-21.42v-42.11h19.25v5.66Z"/><path class="cls-2" d="M184.39,103.46c-7.52,0-10.17-8.3-10.17-16.36s3.01-15.16,10.17-15.16,10.17,7.4,10.17,15.16-2.65,16.36-10.17,16.36ZM184.39,109.47c11.01,0,17.87-9.8,17.87-22.38,0-11.79-7.58-21.18-17.87-21.18s-17.87,9.38-17.87,21.18c0,12.57,6.86,22.38,17.87,22.38Z"/><path class="cls-2" d="M236.91,89.5v17.38c-3.85,1.51-7.88,2.59-11.97,2.59-12.39,0-20.21-9.62-20.21-22.02,0-11.49,7.82-21.53,20.46-21.53,3.91,0,7.82,1.45,10.22,3.25l-2.35,4.99c-1.92-1.2-4.93-2.22-7.7-2.22-7.7,0-12.93,6.08-12.93,15.64s6.02,15.88,12.21,15.88c1.92,0,3.55-.24,5.05-1.02v-12.94h7.22Z"/><path class="cls-2" d="M250.75,72.3h3.19c4.27,0,6.67,2.46,6.67,6.79,0,5.65-3.43,8.18-6.86,8.36-.72.06-2.4.12-3.01.19v-15.34ZM269.03,108.75l-8.48-17.45c4.63-2.46,7.28-7.46,7.28-12.51,0-8.19-4.99-12.16-13.05-12.16h-11.25v42.11h7.22v-15.88h3.25l6.8,15.88h8.24Z"/><path class="cls-2" d="M280.94,92.08c1.68-5.53,3.37-10.65,4.87-17.14h.12c1.69,6.49,3.19,11.61,4.76,17.14h-9.75ZM283.71,66.64l-14.56,42.11h6.26l3.67-11.49h12.69l3.31,11.49h8.06l-13.42-42.11h-6.02Z"/><path class="cls-2" d="M316.68,66.64h-11.25v42.11h7.22v-15.88h3.25c8.6,0,13.84-6.98,13.84-14.07,0-8.19-5-12.16-13.06-12.16ZM315.66,87.45c-.74.06-2.5.12-3.01.17v-15.33h3.25c4.21,0,6.62,2.46,6.62,6.79,0,5.65-3.43,8.18-6.86,8.36Z"/><path class="cls-2" d="M363.18,108.75h-7.22v-20.28h-14.98v20.28h-7.16v-42.11h7.16v16.19h14.98v-16.06h7.22v41.99Z"/><path class="cls-2" d="M370.1,108.75v-42.11h7.16v42.11h-7.16Z"/><path class="cls-2" d="M409.74,74.28c-1.75-1.08-4.63-2.34-7.4-2.34-7.34,0-12.69,6.08-12.69,15.64s5.9,15.88,12.87,15.88c2.77,0,5.35-.9,7.22-2.11l1.99,5.24c-2.17,1.5-6.02,2.88-9.51,2.88-12.39,0-20.21-9.62-20.21-22.02,0-11.49,7.76-21.53,20.33-21.53,3.73,0,7.22,1.57,9.69,3.25l-2.29,5.11Z"/></g></g></svg>